<?xml version="1.0" encoding="UTF-8"?>
<!DOCTYPE svg PUBLIC "-//W3C//DTD SVG 1.1//EN" "http://www.w3.org/Graphics/SVG/1.1/DTD/svg11.dtd">
<svg xmlns="http://www.w3.org/2000/svg" xml:space="preserve" width="1.70666in" height="1.70666in" version="1.1" style="shape-rendering:geometricPrecision; text-rendering:geometricPrecision; image-rendering:optimizeQuality; fill-rule:evenodd; clip-rule:evenodd"
viewBox="0 0 1706.66 1706.66"
 xmlns:xlink="http://www.w3.org/1999/xlink"
 xmlns:xodm="http://www.corel.com/coreldraw/odm/2003">
 <defs>
  <style type="text/css">
   <![CDATA[
    .fil0 {fill:#6c5ce7}
   ]]>
  </style>
 </defs>
 <g id="Layer_x0020_1">
  <metadata id="CorelCorpID_0Corel-Layer"/>
  <path class="fil0" d="M1310.09 1659.44c-49.64,0 -484.87,2.57 -494.76,-1.5 -250.99,-103.17 -380.71,-343.57 -388.18,-590.31 115.18,-39.57 378.26,-104.07 628.14,18.51 214.54,105.23 454.75,89.24 647.75,27.37 -21.22,230.24 -149.91,447.75 -385.35,544.43 -2.41,0.99 -4.99,1.5 -7.6,1.5zm-883 -634.45c5.56,-207.99 97.81,-415.13 277.54,-543.31 3.39,-2.41 7.46,-3.72 11.63,-3.72l700.52 0c4.17,0 8.24,1.31 11.63,3.72 192.62,137.37 284.78,365.57 277.37,588.28 -115.13,39.8 -377.39,104.3 -628.07,-18.7 -254.22,-124.7 -520.47,-68.16 -650.61,-26.26z"/>
  <path class="fil0" d="M1280.39 517.95l-427.77 0c-11.04,0 -20,-8.96 -20,-20l0 -208.39c0,-11.04 8.96,-20 20,-20l427.76 0c11.04,0 20,8.96 20,20l0 208.39c0.01,11.06 -8.94,20 -19.99,20z"/>
  <path class="fil0" d="M1187.41 309.57l-241.81 0c-11.04,0 -20,-8.96 -20,-20l0 -222.34c0,-11.04 8.97,-20 20,-20l241.81 0c11.04,0 20,8.96 20,20l0 222.34c0.02,11.06 -8.95,20 -20,20zm-41.28 -133.69c0,-62.04 -94.24,-62.04 -94.24,0 0,62.04 94.24,62.04 94.24,0z"/>
  <path class="fil0" d="M315.67 722.03c-28.57,0.02 -46.2,-31.67 -31.17,-55.96 113.77,-183.92 294.65,-307.41 513.23,-311.47 32.8,-0.61 77.67,-4.26 88.91,25.23 10,26.2 -10.71,54.84 -39.89,50.12 -53.5,-8.67 -128.94,1.95 -179.56,16.7 -139.13,40.54 -244.98,136.21 -320.32,257.98 -6.7,10.83 -18.49,17.39 -31.2,17.4z"/>
  <path class="fil0" d="M91.42 1001.17c-114.19,0 -127.43,-142.62 -3.33,-266.7 143.2,-143.19 304.04,-100.56 259.36,50.19 -31.07,104.84 -154.93,216.51 -256.03,216.51z"/>
 </g>
</svg>
